<?xml version="1.0" encoding="UTF-8" ?>
<!DOCTYPE svg PUBLIC "-//W3C//DTD SVG 1.1//EN" "http://www.w3.org/Graphics/SVG/1.1/DTD/svg11.dtd">
<svg width="904pt" height="922pt" viewBox="0 0 904 922" version="1.1" xmlns="http://www.w3.org/2000/svg">
<g id="#94a3b8ff">
<path fill="#94a3b8" opacity="1.00" d=" M 514.44 123.51 C 517.26 121.98 520.67 122.41 523.68 123.05 C 526.91 123.81 530.56 125.57 531.38 129.11 C 532.15 133.13 531.48 137.67 528.93 140.97 C 525.53 144.92 519.46 144.52 514.98 142.96 C 507.46 139.64 508.08 127.71 514.44 123.51 Z" />
<path fill="#94a3b8" opacity="1.00" d=" M 620.26 170.83 C 618.63 165.79 622.65 160.83 627.19 159.16 C 633.87 157.92 639.12 163.23 644.60 166.09 C 641.87 171.34 638.46 176.21 635.13 181.09 C 633.97 182.84 632.18 180.62 630.91 180.14 C 627.16 177.36 621.67 175.76 620.26 170.83 Z" />
<path fill="#94a3b8" opacity="1.00" d=" M 230.04 181.25 C 233.18 179.47 237.45 177.62 240.64 180.35 C 244.23 183.74 246.74 188.09 249.71 192.00 C 247.33 194.08 244.75 195.90 242.01 197.46 C 238.03 192.05 233.39 187.08 230.04 181.25 Z" />
<path fill="#94a3b8" opacity="1.00" d=" M 218.36 194.03 C 218.28 191.05 220.36 188.86 222.19 186.79 C 227.35 191.22 230.77 197.24 235.38 202.19 C 233.47 204.68 231.11 207.11 228.10 208.18 C 226.23 207.45 225.29 205.37 223.90 204.01 C 221.60 201.01 218.01 198.20 218.36 194.03 Z" />
<path fill="#94a3b8" opacity="1.00" d=" M 424.46 192.76 C 438.83 192.02 453.27 190.70 467.63 192.28 C 483.20 193.00 498.65 195.53 513.85 198.91 C 528.44 202.72 543.14 206.55 556.85 212.98 C 562.52 215.79 568.61 217.72 574.10 220.90 C 580.89 224.80 588.11 227.96 594.58 232.41 C 643.81 263.11 683.09 309.77 704.19 363.87 C 717.27 395.86 722.93 430.55 723.30 465.00 C 722.63 504.09 714.66 543.31 697.78 578.70 C 689.99 595.22 680.86 611.16 669.67 625.62 C 667.06 628.80 665.02 632.52 661.82 635.16 C 658.25 635.84 654.60 635.46 651.00 635.53 C 515.31 635.50 379.62 635.56 243.93 635.51 C 241.86 635.74 240.19 634.62 239.04 633.01 C 216.24 604.92 199.59 571.97 189.71 537.20 C 183.04 512.38 179.73 486.68 179.78 461.00 C 180.56 451.88 179.90 442.66 181.56 433.61 C 182.92 420.45 185.53 407.46 188.63 394.60 C 202.11 343.23 231.05 296.02 270.76 260.75 C 310.31 225.20 360.59 201.66 413.28 194.33 C 417.00 193.75 420.72 193.16 424.46 192.76 M 393.90 203.79 C 378.44 207.51 363.07 211.92 348.54 218.46 C 300.35 238.46 258.69 273.50 229.92 316.93 C 208.06 349.99 193.53 387.94 188.17 427.23 C 185.91 439.03 187.03 451.10 185.92 463.00 C 187.02 475.70 185.78 488.58 188.45 501.14 C 192.12 529.13 200.63 556.45 213.24 581.70 C 221.65 599.18 232.69 615.22 244.45 630.58 C 369.30 630.65 494.15 630.60 619.00 630.60 C 632.18 630.46 645.39 630.90 658.55 630.42 C 665.93 621.10 672.84 611.29 679.17 601.19 C 696.92 571.41 709.39 538.30 714.19 503.89 C 715.97 490.67 718.02 477.39 717.45 464.00 C 717.87 452.63 716.61 441.31 715.07 430.07 C 708.67 376.74 685.02 325.78 649.11 285.91 C 606.20 237.85 545.28 206.06 481.13 199.31 C 467.52 197.09 453.70 197.52 439.96 197.65 C 424.53 198.99 409.02 200.24 393.90 203.79 Z" />
<path fill="#94a3b8" opacity="1.00" d=" M 447.49 206.55 C 452.05 205.34 457.37 207.74 459.14 212.19 C 460.52 216.46 459.60 222.17 455.17 224.28 C 450.36 227.32 443.29 225.19 441.10 219.91 C 438.33 214.67 442.23 208.21 447.49 206.55 Z" />
<path fill="#94a3b8" opacity="1.00" d=" M 691.11 211.19 C 696.66 209.77 702.89 210.69 707.11 214.78 C 713.11 219.85 719.47 228.21 715.96 236.38 C 709.25 235.16 702.86 232.70 696.38 230.65 C 695.33 223.98 692.33 217.82 691.11 211.19 Z" />
<path fill="#94a3b8" opacity="1.00" d=" M 423.43 223.41 C 428.83 220.34 436.17 224.99 436.44 231.01 C 436.89 236.65 430.65 241.79 425.21 239.89 C 421.94 238.59 418.76 235.71 418.57 232.00 C 418.09 228.43 420.73 225.36 423.43 223.41 Z" />
<path fill="#94a3b8" opacity="1.00" d=" M 446.69 233.97 C 446.05 228.82 453.62 226.62 456.46 230.57 C 458.62 233.13 455.90 236.11 455.95 238.91 C 456.60 242.09 458.15 244.99 459.14 248.07 C 464.01 248.00 469.33 248.35 473.05 251.92 C 477.00 254.79 478.40 259.69 478.70 264.35 C 481.38 265.16 484.14 265.72 486.93 266.05 C 489.21 263.34 492.05 260.07 496.00 260.61 C 502.66 260.56 507.61 269.08 503.64 274.66 C 501.15 279.28 494.57 280.72 490.33 277.71 C 487.16 275.57 486.41 271.54 485.73 268.05 C 483.25 267.55 480.76 267.18 478.26 266.88 C 476.92 269.58 475.45 272.21 474.02 274.86 C 475.12 276.44 476.08 278.16 477.49 279.51 C 481.13 280.12 485.45 278.55 488.47 281.42 C 493.67 285.15 492.29 294.12 486.63 296.68 C 482.06 298.71 475.95 296.51 474.29 291.65 C 472.64 288.05 474.66 284.28 476.34 281.11 C 474.98 279.51 473.57 277.97 472.16 276.43 C 469.51 277.58 466.76 278.49 463.98 279.23 C 463.92 281.75 462.71 285.73 466.04 286.67 C 469.20 287.76 471.31 290.76 471.93 293.96 C 472.43 299.65 466.66 304.65 461.11 303.40 C 454.77 302.32 452.08 293.07 456.75 288.71 C 458.45 287.34 460.54 286.60 462.30 285.32 C 462.93 283.39 462.55 281.33 462.58 279.35 C 459.75 278.37 456.95 277.31 454.14 276.30 C 452.58 278.51 451.07 280.77 449.72 283.12 C 450.55 285.33 451.36 287.60 451.49 289.98 C 451.05 294.41 446.57 298.26 442.06 297.25 C 437.33 295.85 433.67 290.23 436.29 285.51 C 438.23 281.05 443.63 280.85 447.75 281.67 C 449.58 279.54 451.57 277.46 452.67 274.84 C 452.07 272.59 450.30 270.98 448.95 269.18 C 446.47 270.21 443.63 270.59 441.53 272.37 C 440.30 274.83 439.68 278.08 436.74 279.12 C 432.65 281.17 427.09 278.59 426.37 273.99 C 425.41 269.76 428.68 265.16 433.00 264.77 C 436.57 264.14 438.90 267.51 441.02 269.80 C 443.48 268.93 445.90 267.99 448.32 267.01 C 448.17 265.03 448.12 263.05 448.15 261.07 C 445.46 260.15 442.76 259.25 440.03 258.49 C 438.01 260.22 435.93 262.63 433.03 262.51 C 428.72 262.81 425.32 257.40 427.40 253.63 C 428.63 251.25 431.08 249.02 433.96 249.43 C 437.45 249.63 439.04 253.24 440.17 256.05 C 443.03 256.70 445.83 258.53 448.81 258.10 C 449.70 256.97 450.93 255.67 450.80 254.13 C 449.13 251.86 447.04 249.84 444.61 248.39 C 441.88 247.82 438.27 249.09 436.43 246.38 C 433.02 242.40 437.51 234.58 442.71 237.11 C 446.55 238.63 446.63 243.24 446.26 246.71 C 448.34 248.76 450.58 250.65 452.97 252.34 C 454.41 251.19 455.95 250.15 457.46 249.09 C 456.06 246.00 455.43 242.49 453.33 239.76 C 450.72 238.39 446.83 237.63 446.69 233.97 Z" />
<path fill="#94a3b8" opacity="1.00" d=" M 411.47 248.36 C 415.30 246.48 420.97 246.73 423.45 250.66 C 425.65 254.37 425.04 259.92 421.17 262.32 C 416.85 266.14 409.20 263.31 407.96 257.84 C 407.01 254.36 408.51 250.38 411.47 248.36 Z" />
<path fill="#94a3b8" opacity="1.00" d=" M 740.29 261.99 C 747.30 259.81 752.89 267.00 754.38 273.05 C 755.67 277.01 753.40 281.00 750.13 283.16 C 747.22 285.11 743.24 287.12 739.89 285.04 C 734.59 281.94 730.14 275.51 732.14 269.19 C 733.74 265.84 736.84 263.27 740.29 261.99 Z" />
<path fill="#94a3b8" opacity="1.00" d=" M 415.28 274.84 C 420.78 272.46 427.97 277.91 426.35 283.93 C 424.78 287.44 421.28 291.18 417.05 290.28 C 413.26 289.05 409.59 285.28 410.38 281.02 C 410.75 278.28 412.77 275.92 415.28 274.84 Z" />
<path fill="#94a3b8" opacity="1.00" d=" M 505.30 283.11 C 508.44 281.48 512.77 284.38 512.33 287.95 C 512.05 291.82 506.65 294.03 503.98 290.99 C 501.32 288.84 502.57 284.55 505.30 283.11 Z" />
<path fill="#94a3b8" opacity="1.00" d=" M 395.40 287.33 C 396.67 286.57 398.24 284.70 399.79 285.95 C 400.97 287.67 401.09 289.91 399.10 291.06 C 391.66 296.58 384.44 302.42 377.55 308.62 C 359.30 323.34 341.30 338.38 323.10 353.13 C 314.81 360.93 305.31 367.32 296.82 374.88 C 292.42 379.46 287.82 383.99 282.27 387.17 C 279.74 388.64 276.54 388.79 274.06 387.13 C 275.40 385.85 276.78 384.64 278.16 383.41 C 275.40 383.40 272.46 383.72 270.06 385.18 C 268.54 387.15 267.40 389.39 266.14 391.53 C 261.94 389.57 263.41 383.67 266.20 381.14 C 271.18 377.89 277.68 378.56 282.87 375.78 C 292.89 368.54 302.14 360.32 312.18 353.12 C 316.21 349.74 320.07 346.16 324.49 343.29 C 332.16 337.33 339.39 330.82 347.46 325.38 C 363.15 312.34 379.61 300.25 395.40 287.33 Z" />
<path fill="#94a3b8" opacity="1.00" d=" M 525.26 289.94 C 528.80 292.25 531.84 295.21 535.08 297.90 C 548.52 309.19 562.45 319.88 575.98 331.07 C 583.00 337.37 590.64 342.93 597.92 348.93 C 606.19 355.32 613.87 362.44 622.25 368.69 C 625.53 371.00 628.31 373.92 631.48 376.38 C 636.09 379.77 642.21 379.23 647.25 381.53 C 651.28 383.62 652.40 388.83 649.93 392.56 C 646.50 392.02 646.15 388.15 643.95 386.11 C 641.68 384.30 638.68 384.33 635.94 384.39 C 637.47 385.75 640.79 386.82 640.28 389.18 C 631.59 390.05 624.93 383.16 619.69 377.19 C 610.68 368.53 600.84 360.80 591.45 352.56 C 577.65 341.02 564.00 329.31 550.19 317.78 C 542.53 310.46 533.94 304.22 526.04 297.17 C 525.16 296.13 523.52 295.43 523.46 293.92 C 523.75 292.49 524.56 291.21 525.26 289.94 Z" />
<path fill="#94a3b8" opacity="1.00" d=" M 382.55 312.54 C 389.64 306.66 395.24 299.28 402.14 293.21 C 403.40 294.17 405.02 295.14 405.23 296.89 C 396.94 306.64 387.23 315.11 378.84 324.78 C 375.15 328.74 370.85 332.10 367.36 336.24 C 362.77 341.67 357.40 346.36 352.76 351.72 C 346.10 359.36 338.45 366.05 331.81 373.69 C 327.97 378.08 323.15 381.81 317.52 383.54 C 315.72 384.17 313.74 383.92 312.06 383.07 C 313.33 381.81 314.71 380.63 316.44 380.06 C 316.49 379.60 316.58 378.68 316.62 378.22 C 314.22 378.81 311.57 379.05 309.55 380.62 C 307.77 382.45 306.45 384.67 304.95 386.73 C 300.70 383.91 302.15 377.17 306.55 375.35 C 311.18 373.70 316.29 373.73 320.79 371.65 C 325.11 369.59 328.09 365.72 331.47 362.48 C 335.12 358.78 339.27 355.60 342.78 351.76 C 355.50 338.14 369.40 325.72 382.55 312.54 Z" />
<path fill="#94a3b8" opacity="1.00" d=" M 428.26 295.92 C 432.30 294.20 437.73 296.49 438.41 301.06 C 439.84 306.86 432.01 313.40 427.10 308.84 C 422.34 305.83 422.35 297.58 428.26 295.92 Z" />
<path fill="#94a3b8" opacity="1.00" d=" M 493.45 297.24 C 497.17 294.65 502.13 298.92 501.69 302.97 C 501.20 306.51 496.91 309.97 493.50 307.60 C 489.47 305.55 489.53 299.38 493.45 297.24 Z" />
<path fill="#94a3b8" opacity="1.00" d=" M 516.42 303.88 C 517.60 302.97 518.13 300.59 519.86 300.78 C 523.20 303.15 525.70 306.50 528.91 309.05 C 539.47 318.11 548.84 328.42 559.21 337.70 C 567.17 345.43 575.17 353.14 583.39 360.61 C 586.72 363.89 589.53 367.90 593.84 370.00 C 597.89 372.17 602.48 372.85 606.97 373.47 C 611.92 373.88 616.15 380.01 613.55 384.62 C 613.15 384.85 612.35 385.31 611.95 385.55 C 609.94 384.00 609.24 381.33 607.36 379.67 C 605.32 378.22 602.79 377.85 600.43 377.28 C 600.44 377.71 600.46 378.56 600.47 378.99 C 601.97 379.75 603.23 380.85 603.76 382.51 C 597.01 384.11 591.61 379.06 587.07 374.89 C 569.33 356.99 551.30 339.35 533.63 321.37 C 527.96 315.46 521.80 310.05 516.42 303.88 Z" />
<path fill="#94a3b8" opacity="1.00" d=" M 406.68 303.51 C 408.26 301.03 410.66 303.23 411.67 304.96 C 405.19 313.00 397.82 320.26 391.27 328.24 C 385.51 334.50 379.70 340.73 374.37 347.37 C 358.72 364.76 343.40 382.44 327.79 399.87 C 323.81 404.55 320.01 409.43 315.28 413.40 C 311.39 416.64 306.49 418.19 301.93 420.20 C 298.16 421.74 294.25 423.87 290.05 423.18 C 288.43 423.00 286.00 421.89 288.16 420.32 C 289.72 419.35 291.40 418.60 293.02 417.74 C 289.68 417.76 286.29 417.43 283.01 418.15 C 280.89 419.99 279.39 422.50 276.92 423.95 C 274.14 420.62 276.69 416.61 279.70 414.59 C 283.68 411.17 289.22 412.61 293.99 412.39 C 299.14 412.16 304.92 412.38 309.23 409.07 C 315.44 404.27 319.43 397.32 325.21 392.07 C 328.79 388.64 331.62 384.51 335.21 381.07 C 339.66 376.84 343.26 371.81 347.78 367.65 C 352.14 363.66 355.37 358.63 359.65 354.56 C 363.60 350.81 366.71 346.28 370.74 342.60 C 375.47 338.33 378.90 332.88 383.51 328.49 C 391.57 320.47 398.96 311.83 406.68 303.51 Z" />
<path fill="#94a3b8" opacity="1.00" d=" M 476.31 306.02 C 480.98 303.96 485.92 310.50 482.78 314.52 C 481.18 317.64 476.59 318.54 474.29 315.68 C 470.80 312.96 472.49 307.46 476.31 306.02 Z" />
<path fill="#94a3b8" opacity="1.00" d=" M 453.39 307.25 C 458.40 304.38 465.09 311.62 461.50 316.31 C 459.51 319.80 454.30 320.74 451.77 317.31 C 448.15 314.67 449.53 308.88 453.39 307.25 Z" />
<path fill="#94a3b8" opacity="1.00" d=" M 509.22 310.94 C 510.32 309.70 511.58 308.62 512.95 307.69 C 525.35 320.75 538.46 333.14 550.58 346.46 C 574.56 370.48 597.91 395.10 621.82 419.18 C 624.75 422.11 627.33 425.86 631.45 427.19 C 638.27 427.93 645.15 426.73 651.98 427.33 C 655.24 427.72 658.52 429.77 659.49 433.05 C 659.88 434.79 659.79 438.00 657.17 437.12 C 655.49 435.78 654.16 434.06 652.44 432.78 C 649.30 432.14 646.07 432.49 642.90 432.66 C 644.68 434.45 648.38 434.10 648.50 437.20 C 641.05 438.65 633.91 435.53 626.94 433.37 C 620.74 431.39 617.21 425.64 612.70 421.41 C 608.04 417.03 604.28 411.82 599.66 407.41 C 593.50 401.53 588.47 394.59 582.17 388.85 C 572.66 378.69 563.45 368.25 553.57 358.44 C 546.14 349.89 538.06 341.94 530.52 333.49 C 522.92 326.42 516.93 317.88 509.22 310.94 Z" />
<path fill="#94a3b8" opacity="1.00" d=" M 387.57 343.52 C 396.95 332.34 405.97 320.87 414.91 309.37 C 415.68 309.59 417.22 310.05 417.99 310.28 C 418.49 311.94 418.17 313.64 416.95 314.91 C 406.79 327.82 397.31 341.24 387.08 354.10 C 374.66 370.95 361.81 387.47 349.38 404.32 C 343.51 411.21 338.99 419.21 332.58 425.63 C 328.10 429.65 322.76 433.90 316.37 433.43 C 316.22 430.58 319.08 429.51 320.96 428.06 C 317.55 428.53 313.88 428.93 311.03 431.05 C 309.75 432.79 308.92 434.81 308.16 436.81 C 303.83 434.93 305.14 428.60 308.40 426.31 C 313.80 422.78 320.86 423.55 326.34 420.20 C 329.36 417.60 331.29 414.01 333.82 410.96 C 351.62 388.39 370.00 366.27 387.57 343.52 Z" />
<path fill="#94a3b8" opacity="1.00" d=" M 502.17 318.63 C 499.91 315.89 505.60 312.82 506.93 316.03 C 512.99 324.61 520.34 332.17 526.55 340.65 C 533.24 348.27 538.97 356.67 545.88 364.10 C 551.54 371.43 557.36 378.64 563.31 385.73 C 567.51 392.14 573.12 397.43 577.56 403.65 C 580.56 407.53 583.89 411.15 586.94 415.00 C 589.04 417.44 591.06 420.32 594.25 421.41 C 599.08 423.48 604.64 423.17 609.33 425.58 C 613.34 427.67 614.34 434.62 609.92 436.74 C 608.80 434.70 607.91 432.49 606.31 430.78 C 604.20 429.03 601.41 428.57 598.96 427.49 C 599.06 428.19 598.84 428.78 598.30 429.24 C 599.70 430.12 602.95 430.99 602.10 433.11 C 598.08 434.24 594.33 431.89 590.91 430.14 C 587.95 428.52 584.95 426.76 582.80 424.10 C 573.58 412.32 564.81 400.17 555.48 388.47 C 543.07 371.02 529.23 354.65 516.75 337.27 C 511.93 331.02 507.13 324.76 502.17 318.63 Z" />
<path fill="#94a3b8" opacity="1.00" d=" M 422.73 316.72 C 424.04 314.77 426.28 317.42 427.73 317.98 C 419.30 334.07 410.76 350.12 402.47 366.29 C 396.60 375.88 392.51 386.59 385.53 395.46 C 381.40 400.11 376.03 405.20 369.29 404.50 C 370.21 402.59 371.30 400.73 372.87 399.28 C 370.82 399.61 368.55 399.52 366.84 400.88 C 364.58 402.65 363.26 405.29 361.72 407.66 C 361.18 407.61 360.10 407.52 359.56 407.47 C 359.06 404.73 357.94 401.36 360.30 399.14 C 365.28 393.21 374.63 395.34 379.93 389.96 C 384.13 383.72 387.32 376.85 391.46 370.56 C 401.81 352.57 412.34 334.69 422.73 316.72 Z" />
<path fill="#94a3b8" opacity="1.00" d=" M 491.29 321.66 C 492.60 321.36 493.88 320.95 495.13 320.43 C 499.70 326.56 502.94 333.54 507.02 339.99 C 510.08 344.75 512.74 349.75 515.55 354.66 C 520.83 362.84 524.90 371.72 530.28 379.84 C 533.24 384.08 534.42 390.07 539.53 392.39 C 543.63 394.28 548.20 394.77 552.48 396.18 C 557.48 397.28 559.26 404.20 556.03 407.98 C 553.96 406.37 552.87 403.89 551.06 402.07 C 548.51 400.53 545.63 399.70 542.86 398.69 C 544.12 400.95 546.62 402.19 547.76 404.54 C 541.25 405.37 535.18 401.63 530.99 396.97 C 527.54 392.21 525.23 386.74 522.23 381.70 C 512.40 362.43 501.90 343.51 491.78 324.39 C 491.49 323.50 491.32 322.59 491.29 321.66 Z" />
<path fill="#94a3b8" opacity="1.00" d=" M 413.29 370.48 C 420.53 354.21 426.89 337.57 433.94 321.23 C 435.64 321.89 437.19 322.84 438.67 323.90 C 435.30 330.17 433.56 337.13 430.78 343.65 C 428.16 350.12 426.53 356.97 423.35 363.22 C 420.64 369.38 419.23 376.04 416.29 382.13 C 412.29 393.58 408.43 405.11 403.28 416.11 C 400.07 422.03 394.71 427.87 387.37 427.51 C 387.61 424.95 389.82 423.58 391.70 422.23 C 389.05 420.79 386.55 423.06 384.46 424.49 C 381.71 426.46 381.83 430.22 380.84 433.16 C 376.93 432.08 377.24 427.26 377.60 424.07 C 378.66 420.27 382.86 419.09 386.09 417.75 C 390.33 415.95 395.35 414.16 397.45 409.69 C 402.63 396.59 408.42 383.72 413.29 370.48 Z" />
<path fill="#94a3b8" opacity="1.00" d=" M 479.82 325.80 C 481.28 325.85 482.73 325.73 484.18 325.44 C 488.99 334.90 492.09 345.11 496.33 354.82 C 499.85 361.41 501.69 368.71 504.90 375.44 C 509.63 385.26 512.83 395.73 517.57 405.55 C 521.36 412.75 531.76 411.33 536.21 417.89 C 537.49 419.51 537.40 421.70 536.75 423.56 C 536.10 425.29 535.46 428.57 532.97 427.03 C 532.47 425.05 532.32 423.00 531.80 421.03 C 529.29 418.80 526.02 417.76 522.99 416.46 C 524.48 418.22 525.66 420.21 526.73 422.25 C 521.46 422.57 516.57 419.54 513.20 415.72 C 509.00 409.24 507.49 401.54 504.56 394.50 C 501.74 387.21 498.99 379.90 496.37 372.54 C 493.13 365.64 491.59 358.12 488.54 351.15 C 486.05 345.28 484.38 339.09 481.72 333.29 C 480.58 330.94 479.98 328.39 479.82 325.80 Z" />
<path fill="#94a3b8" opacity="1.00" d=" M 444.84 326.55 C 446.61 326.42 448.37 326.58 450.15 326.72 C 449.23 334.86 446.96 342.77 445.88 350.88 C 445.17 356.65 443.17 362.17 442.54 367.95 C 440.64 380.15 438.37 392.28 436.23 404.44 C 435.30 410.13 430.85 414.52 425.98 417.19 C 424.46 418.13 422.66 418.19 420.94 418.24 C 421.78 416.47 422.67 414.73 423.68 413.06 C 421.68 413.79 419.49 414.32 417.97 415.91 C 415.29 417.89 416.49 421.65 416.13 424.49 C 412.27 424.43 411.35 419.99 410.64 416.98 C 410.28 412.92 414.56 410.86 417.57 409.24 C 421.09 407.13 425.84 405.92 427.71 401.94 C 431.03 389.43 433.72 376.76 436.66 364.15 C 438.41 351.41 442.88 339.25 444.84 326.55 Z" />
<path fill="#94a3b8" opacity="1.00" d=" M 119.16 327.78 C 125.01 329.82 130.58 332.61 136.25 335.13 C 134.57 341.65 132.56 348.86 127.17 353.33 C 122.08 356.84 114.73 352.88 114.01 346.98 C 113.08 340.10 117.53 334.19 119.16 327.78 Z" />
<path fill="#94a3b8" opacity="1.00" d=" M 466.65 327.81 C 468.44 327.83 470.24 327.86 472.04 327.76 C 473.97 337.55 476.84 347.14 478.54 356.98 C 479.47 362.75 481.55 368.26 482.42 374.04 C 484.00 383.53 486.84 392.72 489.01 402.07 C 490.62 408.77 498.89 409.43 503.01 413.97 C 505.58 417.17 503.35 421.14 501.96 424.31 C 501.16 424.37 499.57 424.48 498.78 424.53 C 498.69 421.64 499.23 418.21 496.91 415.98 C 495.26 413.94 492.59 413.48 490.13 413.32 C 491.64 414.75 493.09 416.27 494.26 418.03 C 493.51 419.21 492.47 419.57 491.15 419.10 C 486.38 417.88 482.87 413.61 481.78 408.91 C 479.95 401.62 479.28 394.09 477.28 386.84 C 473.36 367.23 470.20 347.48 466.65 327.81 Z" />
<path fill="#94a3b8" opacity="1.00" d=" M 456.62 328.36 C 458.26 328.34 459.91 328.32 461.56 328.31 C 461.93 334.54 462.48 340.76 462.43 347.01 C 462.34 358.02 463.31 369.00 463.36 380.01 C 463.43 389.01 463.50 398.01 463.65 407.00 C 464.22 412.98 458.79 418.65 452.97 419.05 C 453.47 417.04 453.77 414.95 454.78 413.12 C 451.89 414.01 449.40 416.05 447.89 418.65 C 447.63 420.75 447.98 422.87 448.21 424.97 C 447.47 424.88 445.99 424.70 445.25 424.62 C 443.95 421.40 441.47 417.87 442.97 414.31 C 445.92 410.42 451.67 409.70 454.17 405.34 C 455.08 403.01 454.92 400.44 455.10 398.00 C 455.65 374.78 456.31 351.58 456.62 328.36 Z" />
<path fill="#94a3b8" opacity="1.00" d=" M 263.32 448.07 C 265.87 447.87 268.43 447.67 271.00 447.68 C 286.64 447.83 302.29 447.60 317.93 447.82 C 321.53 457.21 323.90 467.00 327.57 476.36 C 330.83 488.77 335.51 500.73 339.59 512.87 C 344.64 531.06 352.20 548.51 356.11 567.01 C 356.45 567.14 357.13 567.41 357.47 567.54 C 358.69 562.33 360.51 557.28 361.85 552.10 C 364.89 540.60 370.03 529.79 373.05 518.28 C 375.55 510.44 378.28 502.68 380.76 494.84 C 387.06 479.47 390.64 463.16 396.98 447.81 C 413.31 447.59 429.66 447.83 446.00 447.69 C 448.61 447.70 451.25 447.56 453.83 448.02 C 456.77 451.30 458.35 455.53 461.10 458.98 C 467.90 469.77 475.23 480.23 482.03 491.03 C 485.00 496.59 489.23 501.33 492.35 506.81 C 496.69 514.64 502.12 521.78 506.76 529.42 C 511.72 537.68 518.04 545.08 522.41 553.70 C 523.18 555.31 524.14 556.89 525.62 557.97 C 523.67 548.09 524.33 538.00 524.18 528.00 C 524.14 501.35 524.15 474.70 524.21 448.05 C 536.57 447.42 548.99 447.70 561.36 447.90 C 562.05 480.26 561.35 512.67 561.71 545.05 C 562.13 554.84 564.32 565.39 571.66 572.44 C 576.71 578.13 584.82 579.13 591.99 579.43 C 597.89 579.31 604.44 579.13 609.27 575.28 C 613.65 571.73 617.82 567.45 619.56 561.95 C 622.67 552.64 622.01 542.67 622.21 533.00 C 622.22 504.68 622.15 476.37 622.23 448.05 C 628.47 447.40 634.74 447.80 641.01 447.73 C 647.27 447.78 653.55 447.46 659.80 448.06 C 659.89 474.70 659.81 501.35 659.84 528.00 C 659.80 538.44 660.26 548.98 658.24 559.29 C 656.27 572.10 651.05 584.61 642.02 594.05 C 634.97 600.93 626.29 606.20 616.83 608.97 C 604.11 612.11 590.75 613.82 577.75 611.44 C 572.19 610.95 567.01 608.80 561.54 607.95 C 561.21 609.18 560.90 610.42 560.59 611.66 C 548.22 611.57 535.85 611.73 523.49 611.56 C 512.04 594.03 500.95 576.23 489.10 558.94 C 483.15 549.22 476.46 539.99 470.53 530.26 C 463.91 519.29 456.38 508.90 449.65 498.01 C 449.65 535.57 449.82 573.14 449.56 610.69 C 437.83 611.27 426.04 611.11 414.30 610.79 C 413.95 581.86 414.27 552.93 414.14 524.00 C 414.29 509.09 413.86 494.17 414.47 479.26 C 414.15 479.48 413.51 479.91 413.19 480.13 C 411.25 489.04 408.06 497.62 405.63 506.41 C 397.21 531.62 389.45 557.06 380.51 582.10 C 378.70 589.07 375.53 595.59 373.69 602.56 C 372.86 605.64 371.69 608.61 370.67 611.63 C 360.39 611.50 350.09 611.95 339.82 611.39 C 337.03 603.11 334.26 594.81 331.35 586.58 C 329.48 578.30 325.52 570.72 323.30 562.56 C 320.63 552.69 316.81 543.19 313.40 533.57 C 310.96 524.21 306.65 515.47 304.55 506.01 C 301.91 498.71 299.80 491.24 297.36 483.88 C 297.52 513.24 297.44 542.62 297.38 571.98 C 297.20 585.21 297.53 598.46 296.89 611.67 C 286.34 611.51 275.77 611.79 265.22 611.56 C 263.49 611.86 263.41 610.23 263.36 608.97 C 263.34 555.34 263.43 501.70 263.32 448.07 Z" />
<path fill="#94a3b8" opacity="1.00" d=" M 137.04 632.92 C 136.33 630.12 138.86 626.97 141.82 627.91 C 144.90 629.47 146.71 632.59 148.66 635.31 C 150.77 638.55 153.39 641.44 155.36 644.79 C 152.74 646.26 149.63 648.03 146.66 646.33 C 141.81 643.49 138.36 638.33 137.04 632.92 Z" />
<path fill="#94a3b8" opacity="1.00" d=" M 533.50 724.55 C 537.28 723.40 541.24 723.03 545.04 721.93 C 544.94 725.01 545.61 728.76 542.94 731.02 C 540.12 733.47 535.54 735.00 532.15 732.86 C 530.12 730.55 530.28 725.74 533.50 724.55 Z" />
<path fill="#94a3b8" opacity="1.00" d=" M 226.52 723.55 C 233.94 720.60 242.00 726.50 244.69 733.32 C 246.80 740.34 239.70 748.73 232.29 746.86 C 227.24 745.07 222.63 741.44 220.31 736.55 C 218.37 731.35 221.88 725.84 226.52 723.55 Z" />
<path fill="#94a3b8" opacity="1.00" d=" M 647.40 742.43 C 650.96 737.52 658.31 733.45 664.02 737.22 C 664.55 739.27 662.19 740.00 660.98 741.14 C 655.99 744.44 651.46 748.46 646.05 751.11 C 646.11 748.19 645.32 744.87 647.40 742.43 Z" />
<path fill="#94a3b8" opacity="1.00" d=" M 328.30 801.79 C 325.32 800.08 326.17 794.18 330.03 794.42 C 335.95 794.05 341.66 796.23 347.50 796.89 C 347.28 799.64 346.24 802.53 343.64 803.88 C 338.57 805.62 332.82 804.47 328.30 801.79 Z" />
</g>
<g id="#334155ff">
<path fill="#334155" opacity="1.00" d=" M 472.52 98.94 C 475.64 99.00 478.77 99.02 481.89 99.00 C 481.48 100.66 481.17 102.36 481.00 104.07 C 478.19 103.94 475.42 103.55 472.65 103.18 C 472.77 101.76 472.73 100.35 472.52 98.94 Z" />
<path fill="#334155" opacity="1.00" d=" M 440.14 108.50 C 442.91 108.61 445.70 108.62 448.48 108.53 C 448.61 114.34 448.14 120.17 448.61 125.96 C 448.70 129.56 452.60 130.85 455.53 131.44 C 460.14 132.28 465.60 132.68 469.48 129.53 C 471.23 128.26 470.94 125.98 471.15 124.08 C 471.64 119.12 472.19 114.16 472.06 109.16 C 474.92 109.35 477.80 109.59 480.68 109.67 C 480.27 115.77 479.56 121.87 479.74 127.99 C 479.53 129.86 481.19 130.84 482.58 131.65 C 487.84 134.26 494.08 134.76 499.64 132.80 C 501.48 128.79 502.56 123.93 506.53 121.41 C 511.03 118.33 516.79 118.40 522.00 118.99 C 527.74 119.76 534.07 121.37 537.48 126.50 C 540.87 130.17 538.94 135.42 539.79 139.82 C 541.57 143.47 545.99 144.23 549.51 145.35 C 553.73 146.57 559.82 146.67 561.89 141.94 C 565.10 133.84 567.00 125.25 570.57 117.28 C 573.41 116.24 576.21 118.61 578.94 119.29 C 576.30 127.38 573.10 135.28 570.18 143.27 C 568.55 147.96 563.88 150.71 559.07 150.93 C 551.00 150.95 543.03 148.41 536.27 144.02 C 530.14 149.62 521.09 149.07 513.64 146.94 C 508.74 145.56 504.23 142.54 501.88 137.93 C 495.36 138.41 488.62 138.78 482.33 136.69 C 479.82 135.89 477.53 134.51 475.03 133.71 C 471.37 134.45 467.88 136.23 464.07 136.01 C 460.17 135.92 456.19 136.32 452.38 135.32 C 449.86 134.74 447.52 133.59 445.01 133.03 C 439.27 135.32 433.21 136.89 427.00 136.99 C 409.38 137.47 392.08 140.99 374.72 143.71 C 366.22 145.26 357.90 148.78 349.11 147.91 C 345.04 147.13 340.51 145.11 339.26 140.78 C 336.40 132.36 333.08 124.03 331.15 115.33 C 333.78 114.71 336.40 114.05 339.06 113.55 C 342.02 121.02 344.18 128.77 346.39 136.48 C 347.18 138.83 348.00 141.67 350.53 142.70 C 355.12 144.59 360.10 142.73 364.69 141.79 C 386.09 136.53 407.97 133.30 429.98 132.22 C 433.56 131.92 438.29 131.50 440.00 127.81 C 440.74 121.40 439.64 114.93 440.14 108.50 M 514.44 123.51 C 508.08 127.71 507.46 139.64 514.98 142.96 C 519.46 144.52 525.53 144.92 528.93 140.97 C 531.48 137.67 532.15 133.13 531.38 129.11 C 530.56 125.57 526.91 123.81 523.68 123.05 C 520.67 122.41 517.26 121.98 514.44 123.51 Z" />
<path fill="#334155" opacity="1.00" d=" M 589.39 123.05 C 592.23 123.71 595.01 124.64 597.76 125.64 C 593.38 137.65 587.24 148.96 582.78 160.95 C 580.26 160.23 577.77 159.37 575.29 158.56 C 580.33 146.87 584.43 134.78 589.39 123.05 Z" />
<path fill="#334155" opacity="1.00" d=" M 294.98 129.15 C 297.08 127.16 300.17 126.88 302.81 125.97 C 307.13 138.00 312.87 149.43 317.67 161.28 C 315.09 162.25 312.45 163.02 309.81 163.77 C 307.41 157.97 305.12 152.12 302.58 146.38 C 300.15 140.61 296.52 135.21 294.98 129.15 Z" />
<path fill="#334155" opacity="1.00" d=" M 276.32 137.62 C 278.88 136.17 281.50 134.76 284.41 134.13 C 287.99 141.87 292.10 149.35 295.78 157.05 C 297.30 159.98 297.66 163.78 295.61 166.55 C 291.82 172.85 284.96 176.03 278.85 179.57 C 275.19 181.45 271.82 183.86 268.12 185.63 C 266.70 185.26 266.46 183.27 265.67 182.19 C 268.11 181.02 270.21 179.29 272.56 177.98 C 270.23 172.72 266.67 168.16 263.71 163.26 C 260.65 158.58 258.39 153.43 255.23 148.82 C 257.61 147.36 259.68 144.99 262.54 144.57 C 268.51 153.46 273.15 163.23 278.90 172.28 C 279.74 174.35 281.89 172.93 283.20 172.20 C 286.69 170.08 290.41 165.80 288.47 161.49 C 284.80 153.35 280.76 145.38 276.32 137.62 Z" />
<path fill="#334155" opacity="1.00" d=" M 241.19 143.28 C 244.16 140.08 249.01 136.79 253.43 138.99 C 250.40 140.52 246.92 141.26 244.20 143.35 C 244.07 144.58 244.03 145.81 244.06 147.05 C 248.70 146.15 252.38 142.91 256.73 141.23 C 256.70 141.77 256.63 142.87 256.59 143.42 C 251.60 145.99 246.85 148.99 242.12 152.00 C 240.57 153.04 238.78 153.59 236.99 154.00 C 237.86 152.48 239.01 151.16 240.21 149.90 C 239.77 147.69 239.15 144.92 241.19 143.28 Z" />
<path fill="#334155" opacity="1.00" d=" M 441.13 141.72 C 443.62 141.90 446.14 141.87 448.64 141.64 C 448.53 143.31 448.59 144.96 448.73 146.62 C 446.18 146.57 443.62 146.59 441.08 146.66 C 441.15 145.01 441.15 143.37 441.13 141.72 Z" />
<path fill="#334155" opacity="1.00" d=" M 428.17 142.41 C 430.88 142.29 433.60 142.17 436.33 142.35 C 436.25 143.82 436.31 145.29 436.47 146.75 C 433.63 146.96 430.78 147.04 427.95 146.97 C 428.10 145.45 428.19 143.93 428.17 142.41 Z" />
<path fill="#334155" opacity="1.00" d=" M 637.18 150.20 C 638.14 148.79 639.19 147.44 640.14 146.01 C 642.55 147.18 644.90 148.53 647.07 150.11 C 646.44 151.34 645.90 152.61 645.57 153.95 C 642.50 153.36 639.90 151.62 637.18 150.20 Z" />
<path fill="#334155" opacity="1.00" d=" M 612.60 169.74 C 609.42 160.49 619.41 150.30 628.80 153.38 C 637.86 156.39 645.84 161.96 653.86 167.03 C 650.65 172.95 646.83 178.50 642.95 183.99 C 642.47 184.92 641.04 186.52 642.42 187.35 C 645.01 189.31 648.06 190.56 650.63 192.56 C 659.23 199.19 668.15 205.44 676.25 212.69 C 680.65 216.36 684.53 220.61 689.10 224.06 C 688.12 219.01 686.16 214.24 684.57 209.37 C 684.45 208.21 683.31 206.54 684.51 205.65 C 688.80 202.23 694.99 202.89 699.60 205.33 C 710.70 210.22 719.96 219.68 723.19 231.53 C 724.70 235.51 724.08 240.18 721.38 243.50 C 720.23 244.42 718.79 243.58 717.60 243.28 C 712.74 241.56 708.03 239.42 703.04 238.09 C 705.05 241.82 708.61 244.33 711.03 247.77 C 714.48 252.05 717.57 257.54 723.28 259.01 C 728.88 260.28 732.67 254.54 738.02 254.19 C 744.05 253.59 749.29 257.69 752.99 262.02 C 758.03 268.58 762.33 277.21 759.47 285.60 C 757.94 290.29 753.11 292.65 748.66 293.79 C 744.67 294.82 741.02 292.29 738.00 290.02 C 733.65 286.28 730.28 281.47 727.64 276.41 C 725.96 273.29 725.83 269.69 724.75 266.40 C 714.65 261.46 709.08 251.26 701.49 243.48 C 697.72 239.86 695.49 234.87 691.20 231.77 C 682.50 224.85 675.15 216.37 666.06 209.93 C 658.53 204.08 651.01 198.22 643.19 192.76 C 638.69 189.47 633.45 187.39 628.91 184.15 C 622.83 180.27 615.52 176.81 612.60 169.74 M 620.26 170.83 C 621.67 175.76 627.16 177.36 630.91 180.14 C 632.18 180.62 633.97 182.84 635.13 181.09 C 638.46 176.21 641.87 171.34 644.60 166.09 C 639.12 163.23 633.87 157.92 627.19 159.16 C 622.65 160.83 618.63 165.79 620.26 170.83 M 691.11 211.19 C 692.33 217.82 695.33 223.98 696.38 230.65 C 702.86 232.70 709.25 235.16 715.96 236.38 C 719.47 228.21 713.11 219.85 707.11 214.78 C 702.89 210.69 696.66 209.77 691.11 211.19 M 740.29 261.99 C 736.84 263.27 733.74 265.84 732.14 269.19 C 730.14 275.51 734.59 281.94 739.89 285.04 C 743.24 287.12 747.22 285.11 750.13 283.16 C 753.40 281.00 755.67 277.01 754.38 273.05 C 752.89 267.00 747.30 259.81 740.29 261.99 Z" />
<path fill="#334155" opacity="1.00" d=" M 653.10 154.28 C 655.24 154.72 657.07 156.05 658.83 157.30 C 660.75 158.58 658.40 161.31 656.88 161.87 C 654.70 160.86 652.51 159.68 650.91 157.87 C 650.85 156.44 651.63 154.67 653.10 154.28 Z" />
<path fill="#334155" opacity="1.00" d=" M 227.11 177.47 C 232.92 174.96 239.59 170.99 245.96 174.04 C 251.76 178.46 254.70 185.51 259.22 191.09 C 244.87 200.91 231.00 211.45 218.07 223.09 C 214.84 226.15 210.92 228.38 206.65 229.61 C 203.44 239.55 195.61 247.82 186.31 252.39 C 183.81 263.09 175.64 270.96 170.03 280.05 C 160.10 296.66 149.99 313.32 143.11 331.48 C 140.31 338.01 138.04 344.75 135.21 351.26 C 133.08 356.03 130.12 360.83 125.32 363.29 C 121.02 365.55 115.59 363.97 112.19 360.81 C 107.59 355.75 108.20 348.23 109.56 342.03 C 112.08 333.58 115.69 325.50 119.08 317.37 C 125.93 320.74 132.82 324.10 140.07 326.56 C 143.68 320.90 145.41 314.35 148.54 308.45 C 152.59 300.34 157.57 292.74 161.87 284.76 C 165.91 279.10 169.33 273.02 173.46 267.43 C 176.28 263.38 180.98 258.73 178.77 253.39 C 174.70 248.63 169.15 245.40 164.88 240.82 C 166.69 238.76 167.70 234.79 170.74 234.54 C 175.37 238.16 179.35 242.60 184.31 245.80 C 187.48 246.92 190.59 245.00 192.78 242.83 C 195.67 239.94 198.61 236.80 199.97 232.87 C 200.70 228.22 195.94 225.69 193.21 222.80 C 188.57 217.75 183.66 212.95 178.34 208.61 C 180.08 206.02 182.39 203.93 184.88 202.08 C 188.31 205.62 191.58 209.32 195.23 212.64 C 198.54 215.74 201.24 219.49 204.90 222.21 C 206.45 223.50 208.70 223.25 210.51 222.73 C 214.93 220.86 218.22 217.19 221.67 213.97 C 217.83 209.33 211.81 205.48 211.26 198.97 C 210.72 192.52 215.84 187.86 219.44 183.20 C 218.62 181.89 218.01 180.47 217.14 179.20 C 219.33 177.65 221.16 175.40 223.77 174.56 C 225.14 175.17 226.05 176.45 227.11 177.47 M 230.04 181.25 C 233.39 187.08 238.03 192.05 242.01 197.46 C 244.75 195.90 247.33 194.08 249.71 192.00 C 246.74 188.09 244.23 183.74 240.64 180.35 C 237.45 177.62 233.18 179.47 230.04 181.25 M 218.36 194.03 C 218.01 198.20 221.60 201.01 223.90 204.01 C 225.29 205.37 226.23 207.45 228.10 208.18 C 231.11 207.11 233.47 204.68 235.38 202.19 C 230.77 197.24 227.35 191.22 222.19 186.79 C 220.36 188.86 218.28 191.05 218.36 194.03 M 119.16 327.78 C 117.53 334.19 113.08 340.10 114.01 346.98 C 114.73 352.88 122.08 356.84 127.17 353.33 C 132.56 348.86 134.57 341.65 136.25 335.13 C 130.58 332.61 125.01 329.82 119.16 327.78 Z" />
<path fill="#334155" opacity="1.00" d=" M 422.44 179.62 C 442.58 177.96 462.87 178.15 482.99 180.02 C 518.11 184.09 552.58 194.42 583.79 211.09 C 649.49 245.39 700.88 306.37 722.94 377.18 C 739.98 430.10 740.81 488.01 725.61 541.46 C 715.07 578.85 696.73 614.02 672.08 644.03 C 669.52 646.64 667.25 650.79 663.08 650.55 C 521.71 650.55 380.33 650.56 238.96 650.55 C 235.99 650.92 234.35 648.21 232.69 646.26 C 230.12 642.87 227.58 639.44 224.84 636.19 C 215.75 624.90 208.51 612.28 201.14 599.85 C 195.61 588.52 189.60 577.38 185.44 565.44 C 181.78 554.58 177.67 543.84 175.22 532.62 C 168.49 506.00 165.72 478.39 166.71 450.96 C 168.09 436.93 168.88 422.79 171.84 408.98 C 182.43 354.38 209.54 303.16 248.58 263.57 C 272.01 239.78 299.61 220.14 329.73 205.75 C 358.87 191.92 390.40 183.18 422.44 179.62 M 424.46 192.76 C 420.72 193.16 417.00 193.75 413.28 194.33 C 360.59 201.66 310.31 225.20 270.76 260.75 C 231.05 296.02 202.11 343.23 188.63 394.60 C 185.53 407.46 182.92 420.45 181.56 433.61 C 179.90 442.66 180.56 451.88 179.78 461.00 C 179.73 486.68 183.04 512.38 189.71 537.20 C 199.59 571.97 216.24 604.92 239.04 633.01 C 240.19 634.62 241.86 635.74 243.93 635.51 C 379.62 635.56 515.31 635.50 651.00 635.53 C 654.60 635.46 658.25 635.84 661.82 635.16 C 665.02 632.52 667.06 628.80 669.67 625.62 C 680.86 611.16 689.99 595.22 697.78 578.70 C 714.66 543.31 722.63 504.09 723.30 465.00 C 722.93 430.55 717.27 395.86 704.19 363.87 C 683.09 309.77 643.81 263.11 594.58 232.41 C 588.11 227.96 580.89 224.80 574.10 220.90 C 568.61 217.72 562.52 215.79 556.85 212.98 C 543.14 206.55 528.44 202.72 513.85 198.91 C 498.65 195.53 483.20 193.00 467.63 192.28 C 453.27 190.70 438.83 192.02 424.46 192.76 Z" />
<path fill="#334155" opacity="1.00" d=" M 393.90 203.79 C 409.02 200.24 424.53 198.99 439.96 197.65 C 453.70 197.52 467.52 197.09 481.13 199.31 C 545.28 206.06 606.20 237.85 649.11 285.91 C 685.02 325.78 708.67 376.74 715.07 430.07 C 716.61 441.31 717.87 452.63 717.45 464.00 C 718.02 477.39 715.97 490.67 714.19 503.89 C 709.39 538.30 696.92 571.41 679.17 601.19 C 672.84 611.29 665.93 621.10 658.55 630.42 C 645.39 630.90 632.18 630.46 619.00 630.60 C 494.15 630.60 369.30 630.65 244.45 630.58 C 232.69 615.22 221.65 599.18 213.24 581.70 C 200.63 556.45 192.12 529.13 188.45 501.14 C 185.78 488.58 187.02 475.70 185.92 463.00 C 187.03 451.10 185.91 439.03 188.17 427.23 C 193.53 387.94 208.06 349.99 229.92 316.93 C 258.69 273.50 300.35 238.46 348.54 218.46 C 363.07 211.92 378.44 207.51 393.90 203.79 M 447.49 206.55 C 442.23 208.21 438.33 214.67 441.10 219.91 C 443.29 225.19 450.36 227.32 455.17 224.28 C 459.60 222.17 460.52 216.46 459.14 212.19 C 457.37 207.74 452.05 205.34 447.49 206.55 M 423.43 223.41 C 420.73 225.36 418.09 228.43 418.57 232.00 C 418.76 235.71 421.94 238.59 425.21 239.89 C 430.65 241.79 436.89 236.65 436.44 231.01 C 436.17 224.99 428.83 220.34 423.43 223.41 M 446.69 233.97 C 446.83 237.63 450.72 238.39 453.33 239.76 C 455.43 242.49 456.06 246.00 457.46 249.09 C 455.95 250.15 454.41 251.19 452.97 252.34 C 450.58 250.65 448.34 248.76 446.26 246.71 C 446.63 243.24 446.55 238.63 442.71 237.11 C 437.51 234.58 433.02 242.40 436.43 246.38 C 438.27 249.09 441.88 247.82 444.61 248.39 C 447.04 249.84 449.13 251.86 450.80 254.13 C 450.93 255.67 449.70 256.97 448.81 258.10 C 445.83 258.53 443.03 256.70 440.17 256.05 C 439.04 253.24 437.45 249.63 433.96 249.43 C 431.08 249.02 428.63 251.25 427.40 253.63 C 425.32 257.40 428.72 262.81 433.03 262.51 C 435.93 262.63 438.01 260.22 440.03 258.49 C 442.76 259.25 445.46 260.15 448.15 261.07 C 448.12 263.05 448.17 265.03 448.32 267.01 C 445.90 267.99 443.48 268.93 441.02 269.80 C 438.90 267.51 436.57 264.14 433.00 264.77 C 428.68 265.16 425.41 269.76 426.37 273.99 C 427.09 278.59 432.65 281.17 436.74 279.12 C 439.68 278.08 440.30 274.83 441.53 272.37 C 443.63 270.59 446.47 270.21 448.95 269.18 C 450.30 270.98 452.07 272.59 452.67 274.84 C 451.57 277.46 449.58 279.54 447.75 281.67 C 443.63 280.85 438.23 281.05 436.29 285.51 C 433.67 290.23 437.33 295.85 442.06 297.25 C 446.57 298.26 451.05 294.41 451.49 289.98 C 451.36 287.60 450.55 285.33 449.72 283.12 C 451.07 280.77 452.58 278.51 454.14 276.30 C 456.95 277.31 459.75 278.37 462.58 279.35 C 462.55 281.33 462.93 283.39 462.30 285.32 C 460.54 286.60 458.45 287.34 456.75 288.71 C 452.08 293.07 454.77 302.32 461.11 303.40 C 466.66 304.65 472.43 299.65 471.93 293.96 C 471.31 290.76 469.20 287.76 466.04 286.67 C 462.71 285.73 463.92 281.75 463.98 279.23 C 466.76 278.49 469.51 277.58 472.16 276.43 C 473.57 277.97 474.98 279.51 476.34 281.11 C 474.66 284.28 472.64 288.05 474.29 291.65 C 475.95 296.51 482.06 298.71 486.63 296.68 C 492.29 294.12 493.67 285.15 488.47 281.42 C 485.45 278.55 481.13 280.12 477.49 279.51 C 476.08 278.16 475.12 276.44 474.02 274.86 C 475.45 272.21 476.92 269.58 478.26 266.88 C 480.76 267.18 483.25 267.55 485.73 268.05 C 486.41 271.54 487.16 275.57 490.33 277.71 C 494.57 280.72 501.15 279.28 503.64 274.66 C 507.61 269.08 502.66 260.56 496.00 260.61 C 492.05 260.07 489.21 263.34 486.93 266.05 C 484.14 265.72 481.38 265.16 478.70 264.35 C 478.40 259.69 477.00 254.79 473.05 251.92 C 469.33 248.35 464.01 248.00 459.14 248.07 C 458.15 244.99 456.60 242.09 455.95 238.91 C 455.90 236.11 458.62 233.13 456.46 230.57 C 453.62 226.62 446.05 228.82 446.69 233.97 M 411.47 248.36 C 408.51 250.38 407.01 254.36 407.96 257.84 C 409.20 263.31 416.85 266.14 421.17 262.32 C 425.04 259.92 425.65 254.37 423.45 250.66 C 420.97 246.73 415.30 246.48 411.47 248.36 M 415.28 274.84 C 412.77 275.92 410.75 278.28 410.38 281.02 C 409.59 285.28 413.26 289.05 417.05 290.28 C 421.28 291.18 424.78 287.44 426.35 283.93 C 427.97 277.91 420.78 272.46 415.28 274.84 M 505.30 283.11 C 502.57 284.55 501.32 288.84 503.98 290.99 C 506.65 294.03 512.05 291.82 512.33 287.95 C 512.77 284.38 508.44 281.48 505.30 283.11 M 395.40 287.33 C 379.61 300.25 363.15 312.34 347.46 325.38 C 339.39 330.82 332.16 337.33 324.49 343.29 C 320.07 346.16 316.21 349.74 312.18 353.12 C 302.14 360.32 292.89 368.54 282.87 375.78 C 277.68 378.56 271.18 377.89 266.20 381.14 C 263.41 383.67 261.94 389.57 266.14 391.53 C 267.40 389.39 268.54 387.15 270.06 385.18 C 272.46 383.72 275.40 383.40 278.16 383.41 C 276.78 384.64 275.40 385.85 274.06 387.13 C 276.54 388.79 279.74 388.64 282.27 387.17 C 287.82 383.99 292.42 379.46 296.82 374.88 C 305.31 367.32 314.81 360.93 323.10 353.13 C 341.30 338.38 359.30 323.34 377.55 308.62 C 384.44 302.42 391.66 296.58 399.10 291.06 C 401.09 289.91 400.97 287.67 399.79 285.95 C 398.24 284.70 396.67 286.57 395.40 287.33 M 525.26 289.94 C 524.56 291.21 523.75 292.49 523.46 293.92 C 523.52 295.43 525.16 296.13 526.04 297.17 C 533.94 304.22 542.53 310.46 550.19 317.78 C 564.00 329.31 577.65 341.02 591.45 352.56 C 600.84 360.80 610.68 368.53 619.69 377.19 C 624.93 383.16 631.59 390.05 640.28 389.18 C 640.79 386.82 637.47 385.75 635.94 384.39 C 638.68 384.33 641.68 384.30 643.95 386.11 C 646.15 388.15 646.50 392.02 649.93 392.56 C 652.40 388.83 651.28 383.62 647.25 381.53 C 642.21 379.23 636.09 379.77 631.48 376.38 C 628.31 373.92 625.53 371.00 622.25 368.69 C 613.87 362.44 606.19 355.32 597.92 348.93 C 590.64 342.93 583.00 337.37 575.98 331.07 C 562.45 319.88 548.52 309.19 535.08 297.90 C 531.84 295.21 528.80 292.25 525.26 289.94 M 382.55 312.54 C 369.40 325.72 355.50 338.14 342.78 351.76 C 339.27 355.60 335.12 358.78 331.47 362.48 C 328.09 365.72 325.11 369.59 320.79 371.65 C 316.29 373.73 311.18 373.70 306.55 375.35 C 302.15 377.17 300.70 383.91 304.95 386.73 C 306.45 384.67 307.77 382.45 309.55 380.62 C 311.57 379.05 314.22 378.81 316.62 378.22 C 316.58 378.68 316.49 379.60 316.44 380.06 C 314.71 380.63 313.33 381.81 312.06 383.07 C 313.74 383.92 315.72 384.17 317.52 383.54 C 323.15 381.81 327.97 378.08 331.81 373.69 C 338.45 366.05 346.10 359.36 352.76 351.72 C 357.40 346.36 362.77 341.67 367.36 336.24 C 370.85 332.10 375.15 328.74 378.84 324.78 C 387.23 315.11 396.94 306.64 405.23 296.89 C 405.02 295.14 403.40 294.17 402.14 293.21 C 395.24 299.28 389.64 306.66 382.55 312.54 M 428.26 295.92 C 422.35 297.58 422.34 305.83 427.10 308.84 C 432.01 313.40 439.84 306.86 438.41 301.06 C 437.73 296.49 432.30 294.20 428.26 295.92 M 493.45 297.24 C 489.53 299.38 489.47 305.55 493.50 307.60 C 496.91 309.97 501.20 306.51 501.69 302.97 C 502.13 298.92 497.17 294.65 493.45 297.24 M 516.42 303.88 C 521.80 310.05 527.96 315.46 533.63 321.37 C 551.30 339.35 569.33 356.99 587.07 374.89 C 591.61 379.06 597.01 384.11 603.76 382.51 C 603.23 380.85 601.97 379.75 600.47 378.99 C 600.46 378.56 600.44 377.71 600.43 377.28 C 602.79 377.85 605.32 378.22 607.36 379.67 C 609.24 381.33 609.94 384.00 611.95 385.55 C 612.35 385.31 613.15 384.85 613.55 384.62 C 616.15 380.01 611.92 373.88 606.97 373.47 C 602.48 372.85 597.89 372.17 593.84 370.00 C 589.53 367.90 586.72 363.89 583.39 360.61 C 575.17 353.14 567.17 345.43 559.21 337.70 C 548.84 328.42 539.47 318.11 528.91 309.05 C 525.70 306.50 523.20 303.15 519.86 300.78 C 518.13 300.59 517.60 302.97 516.42 303.88 M 406.68 303.51 C 398.96 311.83 391.57 320.47 383.51 328.49 C 378.90 332.88 375.47 338.33 370.74 342.60 C 366.71 346.28 363.60 350.81 359.65 354.56 C 355.37 358.63 352.14 363.66 347.78 367.65 C 343.26 371.81 339.66 376.84 335.21 381.07 C 331.62 384.51 328.79 388.64 325.21 392.07 C 319.43 397.32 315.44 404.27 309.23 409.07 C 304.92 412.38 299.14 412.16 293.99 412.39 C 289.22 412.61 283.68 411.17 279.70 414.59 C 276.69 416.61 274.14 420.62 276.92 423.95 C 279.39 422.50 280.89 419.99 283.01 418.15 C 286.29 417.43 289.68 417.76 293.02 417.74 C 291.40 418.60 289.72 419.35 288.16 420.32 C 286.00 421.89 288.43 423.00 290.05 423.18 C 294.25 423.87 298.16 421.74 301.93 420.20 C 306.49 418.19 311.39 416.64 315.28 413.40 C 320.01 409.43 323.81 404.55 327.79 399.87 C 343.40 382.44 358.72 364.76 374.37 347.37 C 379.70 340.73 385.51 334.50 391.27 328.24 C 397.82 320.26 405.19 313.00 411.67 304.96 C 410.66 303.23 408.26 301.03 406.68 303.51 M 476.31 306.02 C 472.49 307.46 470.80 312.96 474.29 315.68 C 476.59 318.54 481.18 317.64 482.78 314.52 C 485.92 310.50 480.98 303.96 476.31 306.02 M 453.39 307.25 C 449.53 308.88 448.15 314.67 451.77 317.31 C 454.30 320.74 459.51 319.80 461.50 316.31 C 465.09 311.62 458.40 304.38 453.39 307.25 M 509.22 310.94 C 516.93 317.88 522.92 326.42 530.52 333.49 C 538.06 341.94 546.14 349.89 553.57 358.44 C 563.45 368.25 572.66 378.69 582.17 388.85 C 588.47 394.59 593.50 401.53 599.66 407.41 C 604.28 411.82 608.04 417.03 612.70 421.41 C 617.21 425.64 620.74 431.39 626.94 433.37 C 633.91 435.53 641.05 438.65 648.50 437.20 C 648.38 434.10 644.68 434.45 642.90 432.66 C 646.07 432.49 649.30 432.14 652.44 432.78 C 654.16 434.06 655.49 435.78 657.17 437.12 C 659.79 438.00 659.88 434.79 659.49 433.05 C 658.52 429.77 655.24 427.72 651.98 427.33 C 645.15 426.73 638.27 427.93 631.45 427.19 C 627.33 425.86 624.75 422.11 621.82 419.18 C 597.91 395.10 574.56 370.48 550.58 346.46 C 538.46 333.14 525.35 320.75 512.95 307.69 C 511.58 308.62 510.32 309.70 509.22 310.94 M 387.57 343.52 C 370.00 366.27 351.62 388.39 333.82 410.96 C 331.29 414.01 329.36 417.60 326.34 420.20 C 320.86 423.55 313.80 422.78 308.40 426.31 C 305.14 428.60 303.83 434.93 308.16 436.81 C 308.92 434.81 309.75 432.79 311.03 431.05 C 313.88 428.93 317.55 428.53 320.96 428.06 C 319.08 429.51 316.22 430.58 316.37 433.43 C 322.76 433.90 328.10 429.65 332.58 425.63 C 338.99 419.21 343.51 411.21 349.38 404.32 C 361.81 387.47 374.66 370.95 387.08 354.10 C 397.31 341.24 406.79 327.82 416.95 314.91 C 418.17 313.64 418.49 311.94 417.99 310.28 C 417.22 310.05 415.68 309.59 414.91 309.37 C 405.97 320.87 396.95 332.34 387.57 343.52 M 502.17 318.63 C 507.13 324.76 511.93 331.02 516.75 337.27 C 529.23 354.65 543.07 371.02 555.48 388.47 C 564.81 400.17 573.58 412.32 582.80 424.10 C 584.95 426.76 587.95 428.52 590.91 430.14 C 594.33 431.89 598.08 434.24 602.10 433.11 C 602.95 430.99 599.70 430.12 598.30 429.24 C 598.84 428.78 599.06 428.19 598.96 427.49 C 601.41 428.57 604.20 429.03 606.31 430.78 C 607.91 432.49 608.80 434.70 609.92 436.74 C 614.34 434.62 613.34 427.67 609.33 425.58 C 604.64 423.17 599.08 423.48 594.25 421.41 C 591.06 420.32 589.04 417.44 586.94 415.00 C 583.89 411.15 580.56 407.53 577.56 403.65 C 573.12 397.43 567.51 392.14 563.31 385.73 C 557.36 378.64 551.54 371.43 545.88 364.10 C 538.97 356.67 533.24 348.27 526.55 340.65 C 520.34 332.17 512.99 324.61 506.93 316.03 C 505.60 312.82 499.91 315.89 502.17 318.63 M 422.73 316.72 C 412.34 334.69 401.81 352.57 391.46 370.56 C 387.32 376.85 384.13 383.72 379.93 389.96 C 374.63 395.34 365.28 393.21 360.30 399.14 C 357.94 401.36 359.06 404.73 359.56 407.47 C 360.10 407.52 361.18 407.61 361.72 407.66 C 363.26 405.29 364.58 402.65 366.84 400.88 C 368.55 399.52 370.82 399.61 372.87 399.28 C 371.30 400.73 370.21 402.59 369.29 404.50 C 376.03 405.20 381.40 400.11 385.53 395.46 C 392.51 386.59 396.60 375.88 402.47 366.29 C 410.76 350.12 419.30 334.07 427.73 317.98 C 426.28 317.42 424.04 314.77 422.73 316.72 M 491.29 321.66 C 491.32 322.59 491.49 323.50 491.78 324.39 C 501.90 343.51 512.40 362.43 522.23 381.70 C 525.23 386.74 527.54 392.21 530.99 396.97 C 535.18 401.63 541.25 405.37 547.76 404.54 C 546.62 402.19 544.12 400.95 542.86 398.69 C 545.63 399.70 548.51 400.53 551.06 402.07 C 552.87 403.89 553.96 406.37 556.03 407.98 C 559.26 404.20 557.48 397.28 552.48 396.18 C 548.20 394.77 543.63 394.28 539.53 392.39 C 534.42 390.07 533.24 384.08 530.28 379.84 C 524.90 371.72 520.83 362.84 515.55 354.66 C 512.74 349.75 510.08 344.75 507.02 339.99 C 502.94 333.54 499.70 326.56 495.13 320.43 C 493.88 320.95 492.60 321.36 491.29 321.66 M 413.29 370.48 C 408.42 383.72 402.63 396.59 397.45 409.69 C 395.35 414.16 390.33 415.95 386.09 417.75 C 382.86 419.09 378.66 420.27 377.60 424.07 C 377.24 427.26 376.93 432.08 380.84 433.16 C 381.83 430.22 381.71 426.46 384.46 424.49 C 386.55 423.06 389.05 420.79 391.70 422.23 C 389.82 423.58 387.61 424.95 387.37 427.51 C 394.71 427.87 400.07 422.03 403.28 416.11 C 408.43 405.11 412.29 393.58 416.29 382.13 C 419.23 376.04 420.64 369.38 423.35 363.22 C 426.53 356.97 428.16 350.12 430.78 343.65 C 433.56 337.13 435.30 330.17 438.67 323.90 C 437.19 322.84 435.64 321.89 433.94 321.23 C 426.89 337.57 420.53 354.21 413.29 370.48 M 479.82 325.80 C 479.98 328.39 480.58 330.94 481.72 333.29 C 484.38 339.09 486.05 345.28 488.54 351.15 C 491.59 358.12 493.13 365.64 496.37 372.54 C 498.99 379.90 501.74 387.21 504.56 394.50 C 507.49 401.54 509.00 409.24 513.20 415.72 C 516.57 419.54 521.46 422.57 526.73 422.25 C 525.66 420.21 524.48 418.22 522.99 416.46 C 526.02 417.76 529.29 418.80 531.80 421.03 C 532.32 423.00 532.47 425.05 532.97 427.03 C 535.46 428.57 536.10 425.29 536.75 423.56 C 537.40 421.70 537.49 419.51 536.21 417.89 C 531.76 411.33 521.36 412.75 517.57 405.55 C 512.83 395.73 509.63 385.26 504.90 375.44 C 501.69 368.71 499.85 361.41 496.33 354.82 C 492.09 345.11 488.99 334.90 484.18 325.44 C 482.73 325.73 481.28 325.85 479.82 325.80 M 444.84 326.55 C 442.88 339.25 438.41 351.41 436.66 364.15 C 433.72 376.76 431.03 389.43 427.71 401.94 C 425.84 405.92 421.09 407.13 417.57 409.24 C 414.56 410.86 410.28 412.92 410.64 416.98 C 411.35 419.99 412.27 424.43 416.13 424.49 C 416.49 421.65 415.29 417.89 417.97 415.91 C 419.49 414.32 421.68 413.79 423.68 413.06 C 422.67 414.73 421.78 416.47 420.94 418.24 C 422.66 418.19 424.46 418.13 425.98 417.19 C 430.85 414.52 435.30 410.13 436.23 404.44 C 438.37 392.28 440.64 380.15 442.54 367.95 C 443.17 362.17 445.17 356.65 445.88 350.88 C 446.96 342.77 449.23 334.86 450.15 326.72 C 448.37 326.58 446.61 326.42 444.84 326.55 M 466.65 327.81 C 470.20 347.48 473.36 367.23 477.28 386.84 C 479.28 394.09 479.95 401.62 481.78 408.91 C 482.87 413.61 486.38 417.88 491.15 419.10 C 492.47 419.57 493.51 419.21 494.26 418.03 C 493.09 416.27 491.64 414.75 490.13 413.32 C 492.59 413.48 495.26 413.94 496.91 415.98 C 499.23 418.21 498.69 421.64 498.78 424.53 C 499.57 424.48 501.16 424.37 501.96 424.31 C 503.35 421.14 505.58 417.17 503.01 413.97 C 498.89 409.43 490.62 408.77 489.01 402.07 C 486.84 392.72 484.00 383.53 482.42 374.04 C 481.55 368.26 479.47 362.75 478.54 356.98 C 476.84 347.14 473.97 337.55 472.04 327.76 C 470.24 327.86 468.44 327.83 466.65 327.81 M 456.62 328.36 C 456.31 351.58 455.65 374.78 455.10 398.00 C 454.92 400.44 455.08 403.01 454.17 405.34 C 451.67 409.70 445.92 410.42 442.97 414.31 C 441.47 417.87 443.95 421.40 445.25 424.62 C 445.99 424.70 447.47 424.88 448.21 424.97 C 447.98 422.87 447.63 420.75 447.89 418.65 C 449.40 416.05 451.89 414.01 454.78 413.12 C 453.77 414.95 453.47 417.04 452.97 419.05 C 458.79 418.65 464.22 412.98 463.65 407.00 C 463.50 398.01 463.43 389.01 463.36 380.01 C 463.31 369.00 462.34 358.02 462.43 347.01 C 462.48 340.76 461.93 334.54 461.56 328.31 C 459.91 328.32 458.26 328.34 456.62 328.36 M 263.32 448.07 C 263.43 501.70 263.34 555.34 263.36 608.97 C 263.41 610.23 263.49 611.86 265.22 611.56 C 275.77 611.79 286.34 611.51 296.89 611.67 C 297.53 598.46 297.20 585.21 297.38 571.98 C 297.44 542.62 297.52 513.24 297.36 483.88 C 299.80 491.24 301.91 498.71 304.55 506.01 C 306.65 515.47 310.96 524.21 313.40 533.57 C 316.81 543.19 320.63 552.69 323.30 562.56 C 325.52 570.72 329.48 578.30 331.35 586.58 C 334.26 594.81 337.03 603.11 339.82 611.39 C 350.09 611.95 360.39 611.50 370.67 611.63 C 371.69 608.61 372.86 605.64 373.69 602.56 C 375.53 595.59 378.70 589.07 380.51 582.10 C 389.45 557.06 397.21 531.62 405.63 506.41 C 408.06 497.62 411.25 489.04 413.19 480.13 C 413.51 479.91 414.15 479.48 414.47 479.26 C 413.86 494.17 414.29 509.09 414.14 524.00 C 414.27 552.93 413.95 581.86 414.30 610.79 C 426.04 611.11 437.83 611.27 449.56 610.69 C 449.82 573.14 449.65 535.57 449.65 498.01 C 456.38 508.90 463.91 519.29 470.53 530.26 C 476.46 539.99 483.15 549.22 489.10 558.94 C 500.95 576.23 512.04 594.03 523.49 611.56 C 535.85 611.73 548.22 611.57 560.59 611.66 C 560.90 610.42 561.21 609.18 561.54 607.95 C 567.01 608.80 572.19 610.95 577.75 611.44 C 590.75 613.82 604.11 612.11 616.83 608.97 C 626.29 606.20 634.97 600.93 642.02 594.05 C 651.05 584.61 656.27 572.10 658.24 559.29 C 660.26 548.98 659.80 538.44 659.84 528.00 C 659.81 501.35 659.89 474.70 659.80 448.06 C 653.55 447.46 647.27 447.78 641.01 447.73 C 634.74 447.80 628.47 447.40 622.23 448.05 C 622.15 476.37 622.22 504.68 622.21 533.00 C 622.01 542.67 622.67 552.64 619.56 561.95 C 617.82 567.45 613.65 571.73 609.27 575.28 C 604.44 579.13 597.89 579.31 591.99 579.43 C 584.82 579.13 576.71 578.13 571.66 572.44 C 564.32 565.39 562.13 554.84 561.71 545.05 C 561.35 512.67 562.05 480.26 561.36 447.90 C 548.99 447.70 536.57 447.42 524.21 448.05 C 524.15 474.70 524.14 501.35 524.18 528.00 C 524.33 538.00 523.67 548.09 525.62 557.97 C 524.14 556.89 523.18 555.31 522.41 553.70 C 518.04 545.08 511.72 537.68 506.76 529.42 C 502.12 521.78 496.69 514.64 492.35 506.81 C 489.23 501.33 485.00 496.59 482.03 491.03 C 475.23 480.23 467.90 469.77 461.10 458.98 C 458.35 455.53 456.77 451.30 453.83 448.02 C 451.25 447.56 448.61 447.70 446.00 447.69 C 429.66 447.83 413.31 447.59 396.98 447.81 C 390.64 463.16 387.06 479.47 380.76 494.84 C 378.28 502.68 375.55 510.44 373.05 518.28 C 370.03 529.79 364.89 540.60 361.85 552.10 C 360.51 557.28 358.69 562.33 357.47 567.54 C 357.13 567.41 356.45 567.14 356.11 567.01 C 352.20 548.51 344.64 531.06 339.59 512.87 C 335.51 500.73 330.83 488.77 327.57 476.36 C 323.90 467.00 321.53 457.21 317.93 447.82 C 302.29 447.60 286.64 447.83 271.00 447.68 C 268.43 447.67 265.87 447.87 263.32 448.07 Z" />
<path fill="#334155" opacity="1.00" d=" M 191.18 261.93 C 191.45 259.45 193.68 257.84 195.16 256.02 C 196.34 256.65 197.57 257.18 198.88 257.50 C 198.42 260.45 196.21 262.54 194.64 264.94 C 193.39 264.06 191.93 263.32 191.18 261.93 Z" />
<path fill="#334155" opacity="1.00" d=" M 183.10 272.06 C 184.06 269.63 185.90 267.72 187.82 266.02 C 188.83 266.99 189.99 267.87 190.76 269.06 C 190.01 271.83 187.77 273.78 185.99 275.90 C 185.06 274.62 183.31 273.70 183.10 272.06 Z" />
<path fill="#334155" opacity="1.00" d=" M 758.95 302.15 C 766.14 298.93 772.37 293.76 779.82 291.10 C 782.76 292.36 782.98 296.69 784.71 299.23 C 776.59 303.24 768.28 306.94 760.46 311.51 C 756.82 313.53 757.00 318.34 757.91 321.84 C 759.49 327.03 762.18 331.80 763.81 336.98 C 766.07 344.47 769.22 351.65 771.36 359.18 C 776.38 357.89 780.27 353.59 781.56 348.64 C 783.20 340.47 781.40 332.25 779.12 324.41 C 780.33 324.09 781.53 323.69 782.70 323.20 C 786.76 333.26 788.69 344.52 786.30 355.22 C 784.42 362.76 777.65 368.32 770.05 369.35 C 766.85 361.18 765.42 352.45 761.94 344.39 C 759.56 337.78 756.90 331.29 754.20 324.81 C 751.96 319.60 751.31 313.70 752.43 308.16 C 753.21 305.01 756.21 303.36 758.95 302.15 Z" />
<path fill="#334155" opacity="1.00" d=" M 108.85 313.65 C 110.89 312.63 113.86 314.57 112.85 316.90 C 112.17 319.25 111.07 321.46 110.36 323.80 C 108.99 323.27 107.57 322.87 106.10 322.71 C 106.20 319.49 107.28 316.42 108.85 313.65 Z" />
<path fill="#334155" opacity="1.00" d=" M 102.46 328.51 C 103.84 329.05 105.28 329.36 106.77 329.49 C 106.67 332.74 105.49 335.79 104.56 338.87 C 103.06 338.68 101.56 338.60 100.05 338.65 C 100.24 335.14 101.46 331.84 102.46 328.51 Z" />
<path fill="#334155" opacity="1.00" d=" M 751.23 346.68 C 752.87 346.02 754.55 345.50 756.31 345.22 C 757.19 348.03 758.08 350.85 758.80 353.72 C 757.20 353.76 755.62 353.99 754.07 354.29 C 753.10 351.76 752.09 349.24 751.23 346.68 Z" />
<path fill="#334155" opacity="1.00" d=" M 772.06 537.14 C 772.90 531.77 773.95 526.43 774.73 521.05 C 787.09 533.41 800.37 545.06 810.77 559.19 C 814.64 563.72 814.01 570.08 813.01 575.53 C 811.88 580.07 810.40 584.52 808.68 588.87 C 806.86 588.06 804.41 588.19 803.05 586.68 C 802.78 582.75 804.95 579.05 804.82 575.11 C 804.50 573.12 803.39 571.21 801.75 570.05 C 800.34 569.81 799.03 570.50 797.74 570.90 C 788.20 574.43 778.32 576.97 768.45 579.43 C 765.66 580.28 762.78 580.76 759.88 581.03 C 761.65 575.68 763.53 570.37 764.82 564.88 C 774.40 563.18 783.80 560.66 793.33 558.72 C 792.70 557.12 791.60 555.76 790.29 554.68 C 785.22 550.38 780.57 545.58 775.17 541.67 C 773.85 540.40 771.49 539.33 772.06 537.14 Z" />
<path fill="#334155" opacity="1.00" d=" M 99.06 533.26 C 114.41 530.50 129.77 527.74 145.07 524.68 C 146.59 528.43 146.62 532.54 147.66 536.42 C 148.22 539.21 149.67 542.35 147.77 544.97 C 140.06 558.13 132.69 571.57 126.83 585.65 C 137.26 582.23 147.46 578.15 157.87 574.70 C 159.72 579.19 161.51 583.73 162.87 588.41 C 154.16 592.25 145.26 595.61 136.55 599.44 C 130.78 601.70 125.30 604.80 119.17 606.01 C 117.08 600.41 114.59 594.90 113.39 589.03 C 116.91 578.35 122.65 568.51 127.58 558.43 C 129.91 553.37 133.25 548.86 135.43 543.73 C 124.49 545.72 113.66 548.47 102.95 551.46 C 100.96 545.56 100.52 539.29 99.06 533.26 Z" />
<path fill="#334155" opacity="1.00" d=" M 754.96 594.36 C 755.76 591.38 757.46 588.73 758.12 585.71 C 760.00 586.37 761.92 586.94 763.88 587.39 C 762.67 590.56 761.78 593.83 760.52 596.98 C 766.95 599.60 773.19 602.96 779.89 604.77 C 782.55 602.83 783.13 598.94 784.31 595.98 C 786.48 596.50 788.65 597.04 790.85 597.48 C 789.89 602.47 787.74 607.11 785.74 611.75 C 784.15 614.96 782.48 618.49 779.26 620.36 C 776.25 622.07 773.09 619.92 770.37 618.70 C 765.23 616.36 760.32 613.40 754.92 611.74 C 752.79 613.21 752.75 616.39 750.84 618.10 C 748.92 618.07 747.47 616.54 745.86 615.72 C 747.11 613.50 747.54 610.90 749.08 608.82 C 746.46 607.38 743.76 606.08 741.19 604.57 C 740.95 599.83 744.54 595.75 745.57 591.18 C 748.82 591.85 751.77 593.46 754.96 594.36 Z" />
<path fill="#334155" opacity="1.00" d=" M 146.05 609.23 C 149.43 608.81 153.21 608.65 155.92 611.10 C 164.18 617.80 168.74 627.87 172.46 637.58 C 173.95 642.17 175.54 648.62 171.12 652.11 C 165.57 656.28 159.34 659.50 153.78 663.69 C 151.60 665.07 151.63 667.91 151.14 670.16 C 148.12 665.07 144.94 660.08 141.96 654.96 C 142.42 653.56 143.02 652.21 143.48 650.82 C 136.87 645.94 131.36 639.47 128.77 631.57 C 127.25 626.77 125.93 621.12 128.61 616.49 C 131.09 612.20 137.38 612.23 140.95 615.09 C 147.19 619.82 150.17 627.36 154.59 633.59 C 156.78 636.59 158.75 641.28 163.31 640.27 C 164.54 634.60 161.71 629.13 158.14 624.93 C 156.64 622.97 153.86 623.23 151.97 621.92 C 149.51 617.94 147.82 613.54 146.05 609.23 M 137.04 632.92 C 138.36 638.33 141.81 643.49 146.66 646.33 C 149.63 648.03 152.74 646.26 155.36 644.79 C 153.39 641.44 150.77 638.55 148.66 635.31 C 146.71 632.59 144.90 629.47 141.82 627.91 C 138.86 626.97 136.33 630.12 137.04 632.92 Z" />
<path fill="#334155" opacity="1.00" d=" M 725.03 628.90 C 726.54 624.74 729.02 621.02 731.09 617.12 C 733.50 618.39 735.87 619.71 738.22 621.10 C 736.47 625.47 733.89 629.42 732.01 633.73 C 729.50 632.61 726.00 631.62 725.03 628.90 Z" />
<path fill="#334155" opacity="1.00" d=" M 742.02 623.04 C 752.07 629.00 762.92 633.61 772.74 639.94 C 770.15 644.46 767.59 649.02 765.33 653.72 C 762.23 652.70 759.69 650.59 756.91 648.98 C 749.51 644.76 742.26 640.27 734.94 635.91 C 737.15 631.53 739.57 627.28 742.02 623.04 Z" />
<path fill="#334155" opacity="1.00" d=" M 722.46 657.50 C 726.19 654.22 730.94 651.30 736.13 652.08 C 735.62 656.36 732.22 659.45 730.07 662.98 C 728.53 665.61 724.85 664.73 722.80 666.74 C 719.12 670.28 715.14 674.76 715.86 680.27 C 717.62 680.34 719.55 680.17 720.87 678.82 C 727.46 673.17 732.86 666.22 739.62 660.75 C 742.79 658.06 748.22 657.49 751.07 660.93 C 753.65 664.14 753.16 668.55 752.12 672.27 C 749.91 681.11 743.96 688.35 738.11 695.08 C 733.54 699.56 727.94 704.73 721.04 704.03 C 719.48 704.04 718.32 702.87 716.98 702.29 C 720.28 699.14 722.95 695.42 726.05 692.10 C 728.10 690.77 731.02 691.54 733.00 689.92 C 736.79 687.07 739.72 683.16 741.96 679.02 C 743.10 677.18 742.93 675.01 742.95 672.97 C 739.10 672.47 736.57 675.72 734.15 678.13 C 729.66 682.99 724.77 687.49 719.41 691.37 C 716.58 693.39 712.40 695.17 709.33 692.63 C 704.86 689.52 705.54 683.24 706.90 678.69 C 710.41 670.57 716.01 663.49 722.46 657.50 Z" />
<path fill="#334155" opacity="1.00" d=" M 178.17 656.98 C 178.51 655.09 181.01 654.59 182.55 653.88 C 183.78 655.71 185.00 657.55 186.21 659.40 C 189.42 658.25 191.93 655.79 194.83 654.06 C 197.18 657.96 199.83 661.72 202.76 665.21 C 200.00 667.01 197.61 669.30 194.87 671.13 C 196.88 673.27 198.33 675.86 200.38 677.97 C 199.08 679.45 197.65 680.80 196.19 682.12 C 194.34 679.63 192.00 677.56 190.10 675.11 C 184.62 679.37 178.96 683.47 173.84 688.15 C 173.84 691.44 176.94 693.69 178.82 696.12 C 177.04 697.52 175.53 700.05 173.07 700.02 C 171.00 698.35 169.56 696.07 167.97 693.98 C 165.34 690.27 162.17 686.65 161.38 682.03 C 160.88 679.44 162.61 677.07 164.66 675.70 C 170.19 671.71 175.66 667.63 181.29 663.79 C 180.20 661.54 179.03 659.32 178.17 656.98 Z" />
<path fill="#334155" opacity="1.00" d=" M 211.17 683.83 C 211.60 680.92 214.86 679.62 216.89 677.88 C 219.59 680.97 222.56 683.84 224.96 687.19 C 224.25 689.90 221.35 691.46 219.25 693.14 C 216.61 689.98 213.42 687.30 211.17 683.83 Z" />
<path fill="#334155" opacity="1.00" d=" M 415.62 680.61 C 419.94 680.45 424.25 680.45 428.57 680.34 C 428.91 684.56 428.82 688.79 428.34 693.00 C 424.03 692.97 419.72 693.03 415.41 692.86 C 415.29 688.77 415.27 684.69 415.62 680.61 Z" />
<path fill="#334155" opacity="1.00" d=" M 495.15 680.41 C 499.39 680.46 503.64 680.46 507.88 680.44 C 508.53 684.58 508.36 688.77 507.98 692.93 C 503.66 693.00 499.35 693.01 495.05 692.91 C 494.97 688.74 494.93 684.57 495.15 680.41 Z" />
<path fill="#334155" opacity="1.00" d=" M 343.43 681.15 C 349.86 680.99 356.32 680.83 362.75 681.16 L 363.39 681.62 C 367.05 696.01 369.90 710.60 373.48 725.02 C 377.60 710.48 379.85 695.43 384.04 680.91 C 390.35 681.13 396.66 680.92 402.97 681.06 C 402.99 701.60 403.08 722.14 402.92 742.68 C 398.64 742.78 394.37 742.81 390.10 742.67 C 389.75 728.98 390.35 715.27 389.76 701.59 C 388.83 703.63 388.24 705.80 387.87 708.01 C 385.55 719.59 382.48 731.02 380.38 742.65 C 375.72 742.83 371.06 742.86 366.41 742.57 C 364.54 731.59 361.72 720.80 359.50 709.90 C 358.91 707.01 358.67 703.95 357.12 701.38 C 356.62 715.14 357.41 728.91 356.70 742.67 C 352.33 742.81 347.96 742.88 343.60 742.47 C 343.24 722.04 343.59 701.59 343.43 681.15 Z" />
<path fill="#334155" opacity="1.00" d=" M 201.73 690.73 C 203.53 688.94 205.61 687.47 207.69 686.01 C 210.48 689.45 213.62 692.59 216.45 696.01 C 208.92 703.61 201.16 711.01 193.47 718.46 C 192.68 718.98 191.48 720.76 190.55 719.47 C 187.49 716.49 184.63 713.30 181.78 710.13 C 180.83 709.38 182.04 708.31 182.60 707.80 C 189.04 702.19 195.57 696.66 201.73 690.73 Z" />
<path fill="#334155" opacity="1.00" d=" M 695.05 689.88 C 697.61 691.51 699.98 693.42 702.35 695.33 C 698.79 698.97 694.52 702.73 693.70 708.03 C 693.15 711.90 696.18 714.83 698.71 717.28 C 702.19 720.44 705.29 723.99 708.77 727.15 C 705.30 730.70 701.76 734.16 697.97 737.36 C 689.33 729.43 682.40 719.82 673.99 711.68 C 677.27 708.88 680.25 705.71 683.60 702.95 C 684.99 704.32 686.44 705.65 687.90 706.98 C 687.16 700.38 690.34 694.28 695.05 689.88 Z" />
<path fill="#334155" opacity="1.00" d=" M 454.36 700.72 C 460.51 693.57 473.16 693.45 479.23 700.79 C 482.63 704.65 482.78 710.10 482.72 714.98 C 482.52 724.14 482.93 733.30 482.47 742.46 C 478.12 742.86 473.76 742.86 469.41 742.59 C 469.36 733.39 469.40 724.19 469.43 714.99 C 469.43 712.12 469.09 708.22 465.81 707.25 C 462.61 706.69 458.59 706.68 456.35 709.45 C 454.73 711.95 454.09 715.00 454.01 717.96 C 453.95 726.20 454.09 734.44 453.91 742.68 C 449.64 742.78 445.37 742.78 441.11 742.67 C 440.89 727.46 441.03 712.24 441.04 697.03 C 444.95 696.91 448.87 696.90 452.79 697.04 C 453.36 698.23 453.97 699.43 454.36 700.72 Z" />
<path fill="#334155" opacity="1.00" d=" M 526.96 698.03 C 534.21 694.63 542.99 694.38 550.35 697.61 C 554.35 699.46 558.08 703.21 557.97 707.90 C 558.05 716.61 557.95 725.32 558.02 734.03 C 557.91 736.59 559.67 738.64 560.65 740.87 C 560.66 742.06 560.04 742.64 558.80 742.59 C 554.71 743.01 550.61 742.53 546.52 742.56 C 546.19 741.38 545.87 740.21 545.54 739.05 C 540.69 742.05 535.09 744.87 529.21 743.62 C 524.25 743.05 519.59 739.65 518.10 734.82 C 516.95 729.41 517.45 722.78 521.99 719.01 C 526.64 714.84 533.27 715.17 539.04 713.99 C 541.75 713.70 546.15 712.88 544.96 709.13 C 542.90 706.46 539.09 706.76 536.09 706.91 C 532.72 706.86 532.32 711.00 529.98 712.51 C 526.29 713.09 522.54 712.75 518.87 712.30 C 518.84 706.57 521.59 700.55 526.96 698.03 M 533.50 724.55 C 530.28 725.74 530.12 730.55 532.15 732.86 C 535.54 735.00 540.12 733.47 542.94 731.02 C 545.61 728.76 544.94 725.01 545.04 721.93 C 541.24 723.03 537.28 723.40 533.50 724.55 Z" />
<path fill="#334155" opacity="1.00" d=" M 415.40 697.14 C 419.86 696.81 424.33 696.87 428.80 697.09 C 428.86 712.28 428.99 727.48 428.70 742.67 C 424.33 742.82 419.96 742.82 415.60 742.46 C 415.28 727.36 415.68 712.25 415.40 697.14 Z" />
<path fill="#334155" opacity="1.00" d=" M 495.02 697.03 C 499.33 696.87 503.65 696.87 507.97 697.03 C 507.99 712.24 508.09 727.46 507.91 742.67 C 503.65 742.76 499.40 742.83 495.15 742.68 C 494.83 727.46 495.07 712.24 495.02 697.03 Z" />
<path fill="#334155" opacity="1.00" d=" M 220.46 711.65 C 227.52 710.58 234.62 713.63 240.30 717.65 C 246.43 722.05 252.42 727.28 255.63 734.26 C 258.74 741.32 257.61 751.05 250.75 755.52 C 242.83 760.41 232.74 757.35 225.57 752.49 C 217.86 746.97 209.86 740.15 207.81 730.41 C 205.21 721.96 212.04 712.94 220.46 711.65 M 226.52 723.55 C 221.88 725.84 218.37 731.35 220.31 736.55 C 222.63 741.44 227.24 745.07 232.29 746.86 C 239.70 748.73 246.80 740.34 244.69 733.32 C 242.00 726.50 233.94 720.60 226.52 723.55 Z" />
<path fill="#334155" opacity="1.00" d=" M 641.20 737.17 C 647.86 731.12 655.95 726.05 665.06 725.00 C 670.98 725.10 676.32 728.45 679.93 733.01 C 673.01 739.15 665.56 744.64 658.07 750.03 C 655.16 752.19 651.84 753.89 649.51 756.73 C 651.49 757.99 653.50 759.55 655.99 759.51 C 660.85 759.66 665.05 756.57 668.42 753.39 C 671.20 750.84 670.67 746.15 674.15 744.21 C 677.30 742.11 679.64 738.80 683.21 737.38 C 683.57 741.67 683.14 746.16 680.77 749.87 C 674.89 758.77 665.95 765.74 655.66 768.73 C 650.37 769.89 644.23 769.66 639.94 765.97 C 636.24 762.67 633.22 758.10 633.24 752.98 C 633.06 746.74 637.06 741.43 641.20 737.17 M 647.40 742.43 C 645.32 744.87 646.11 748.19 646.05 751.11 C 651.46 748.46 655.99 744.44 660.98 741.14 C 662.19 740.00 664.55 739.27 664.02 737.22 C 658.31 733.45 650.96 737.52 647.40 742.43 Z" />
<path fill="#334155" opacity="1.00" d=" M 256.66 768.68 C 262.64 760.31 267.45 751.14 273.79 743.03 C 276.93 745.34 280.88 746.56 283.67 749.31 C 283.61 750.89 282.86 752.34 282.27 753.78 C 287.90 752.93 293.87 753.42 298.90 756.28 C 303.54 758.81 308.52 762.08 310.29 767.34 C 311.64 771.92 308.98 776.24 307.04 780.20 C 304.27 785.41 302.45 791.12 299.02 795.97 C 294.81 793.96 290.57 792.00 286.27 790.23 C 289.24 783.10 293.63 776.66 296.67 769.57 C 297.68 767.28 296.72 764.61 294.80 763.14 C 291.12 760.15 286.22 757.94 281.43 759.22 C 279.47 759.78 278.16 761.44 277.10 763.08 C 273.77 768.43 270.73 773.96 267.34 779.27 L 266.87 779.47 C 263.02 777.71 259.46 775.34 255.95 773.00 C 253.95 771.93 256.02 769.95 256.66 768.68 Z" />
<path fill="#334155" opacity="1.00" d=" M 612.00 755.35 C 615.71 752.98 619.80 751.27 623.62 749.07 C 624.12 762.20 624.37 775.40 623.51 788.53 C 619.22 790.55 615.07 792.93 610.60 794.54 C 608.63 795.26 606.99 793.47 605.42 792.59 C 596.20 785.88 587.02 779.07 578.24 771.79 C 578.31 771.51 578.44 770.95 578.50 770.67 C 582.60 768.99 586.64 767.07 590.93 765.90 C 598.60 771.43 605.04 778.61 612.79 784.10 C 613.48 774.51 611.37 764.87 612.00 755.35 Z" />
<path fill="#334155" opacity="1.00" d=" M 553.30 766.18 C 557.21 764.81 561.26 763.76 565.03 762.02 C 566.40 764.49 567.30 767.18 568.32 769.82 C 564.33 771.83 560.09 773.33 555.64 773.83 C 554.93 771.25 554.11 768.72 553.30 766.18 Z" />
<path fill="#334155" opacity="1.00" d=" M 320.86 779.66 C 322.71 774.00 329.90 772.61 335.11 773.37 C 343.64 774.97 352.48 777.17 359.51 782.51 C 362.05 784.54 364.67 787.47 363.94 791.01 C 362.58 797.79 359.91 804.27 358.63 811.08 C 358.04 813.49 359.43 815.72 360.61 817.72 C 355.21 816.29 349.85 814.70 344.41 813.49 C 344.20 812.20 344.01 810.92 343.84 809.65 C 338.06 809.88 332.03 810.75 326.50 808.59 C 321.34 806.70 315.66 804.15 313.12 798.94 C 311.07 795.28 312.89 790.46 316.32 788.36 C 319.56 786.05 323.77 786.19 327.52 786.75 C 334.32 787.96 340.91 790.47 347.83 790.97 C 350.89 790.91 351.44 786.48 348.98 785.14 C 343.98 781.85 336.96 779.72 331.78 783.85 C 328.17 782.39 324.61 780.74 320.86 779.66 M 328.30 801.79 C 332.82 804.47 338.57 805.62 343.64 803.88 C 346.24 802.53 347.28 799.64 347.50 796.89 C 341.66 796.23 335.95 794.05 330.03 794.42 C 326.17 794.18 325.32 800.08 328.30 801.79 Z" />
<path fill="#334155" opacity="1.00" d=" M 380.79 774.06 C 385.21 774.22 389.50 775.33 393.81 776.22 C 390.66 791.51 387.58 806.82 384.87 822.20 C 379.93 821.63 375.09 820.50 370.23 819.54 C 373.90 804.42 377.72 789.32 380.79 774.06 Z" />
<path fill="#334155" opacity="1.00" d=" M 557.37 777.69 C 561.53 776.42 565.65 775.02 569.87 773.94 C 571.92 779.85 574.46 785.57 576.54 791.48 C 578.26 796.53 580.90 801.26 582.02 806.53 C 577.47 808.00 573.06 809.92 568.35 810.85 C 564.47 799.88 560.69 788.84 557.37 777.69 Z" />
<path fill="#334155" opacity="1.00" d=" M 470.03 781.13 C 474.60 780.94 479.17 780.62 483.73 780.25 C 485.32 788.71 485.09 797.36 486.40 805.87 C 487.14 810.33 487.62 815.20 485.33 819.33 C 483.06 824.42 477.69 827.12 472.51 828.30 C 463.63 830.30 454.34 830.59 445.36 829.16 C 439.26 827.89 432.62 825.27 429.61 819.41 C 426.58 813.74 428.56 807.15 428.82 801.10 C 429.04 794.37 429.83 787.68 430.09 780.95 C 434.62 781.02 439.14 780.98 443.66 781.26 C 443.21 791.46 442.54 801.67 442.54 811.88 C 442.33 816.10 445.59 819.82 449.63 820.69 C 454.29 821.74 459.20 821.84 463.92 821.03 C 467.43 820.43 471.04 817.79 471.16 813.96 C 471.75 802.98 469.60 792.10 470.03 781.13 Z" />
<path fill="#334155" opacity="1.00" d=" M 512.18 793.36 C 517.35 787.32 525.38 785.17 532.98 784.28 C 537.04 784.36 541.77 785.05 544.49 788.44 C 547.43 792.09 548.03 796.91 549.34 801.29 C 550.43 806.08 552.50 810.63 553.02 815.56 C 548.27 816.68 543.67 818.46 538.75 818.72 C 537.74 811.96 535.74 805.41 534.26 798.75 C 533.76 796.36 532.49 793.63 529.80 793.23 C 525.02 792.47 519.75 793.79 516.17 797.13 C 514.79 798.30 514.53 800.22 514.54 801.94 C 514.58 809.28 517.26 816.25 517.90 823.52 C 512.98 823.67 508.18 825.02 503.26 825.04 C 502.95 821.32 502.20 817.65 501.93 813.94 C 501.26 806.31 498.83 798.81 499.56 791.10 C 503.45 790.47 507.33 789.68 511.25 789.20 C 511.55 790.58 511.86 791.96 512.18 793.36 Z" />
</g>
</svg>
